<?xml version="1.0" encoding="iso-8859-1"?>
<!-- Generator: Adobe Illustrator 19.0.0, SVG Export Plug-In . SVG Version: 6.00 Build 0)  -->
<svg version="1.1" id="Layer_1" xmlns="http://www.w3.org/2000/svg" xmlns:xlink="http://www.w3.org/1999/xlink" x="0px" y="0px"
	 viewBox="0 0 512.001 512.001" style="enable-background:new 0 0 512.001 512.001;" xml:space="preserve">
<g>
	<g>
		<polygon points="304.271,238.812 270.916,233.966 256,203.742 241.084,233.966 207.729,238.812 231.865,262.339 226.167,295.558 
			256,279.874 285.833,295.558 280.135,262.339 		"/>
	</g>
</g>
<g>
	<g>
		<path d="M323.65,0.007l-3.091,11.143C312.545,40.033,285.998,60.205,256,60.205s-56.545-20.172-64.56-49.056l-3.092-11.143H0
			v184.582h97.261v327.406h317.48V184.589h97.261V0.007H323.65z M326.231,351.16L256,314.238l-70.231,36.922l13.413-78.203
			l-56.818-55.383l78.52-11.409l35.115-71.151l35.115,71.151l78.52,11.409l-56.818,55.383L326.231,351.16z"/>
	</g>
</g>
<g>
</g>
<g>
</g>
<g>
</g>
<g>
</g>
<g>
</g>
<g>
</g>
<g>
</g>
<g>
</g>
<g>
</g>
<g>
</g>
<g>
</g>
<g>
</g>
<g>
</g>
<g>
</g>
<g>
</g>
</svg>
